<svg xmlns="http://www.w3.org/2000/svg" width="56" height="28" viewBox="0 0 56 28" shape-rendering="crispEdges">
  <!-- Placeholder goomba-style enemy spritesheet: 2 frames of 28x28 (walk1, walk2). -->

  <!-- Frame 0 -->
  <g transform="translate(0,0)">
    <rect x="6" y="6" width="16" height="12" fill="#6d4c2b"/>
    <rect x="4" y="9" width="20" height="9" fill="#8b5a2b"/>
    <rect x="8" y="11" width="4" height="4" fill="#fff"/>
    <rect x="16" y="11" width="4" height="4" fill="#fff"/>
    <rect x="9" y="12" width="2" height="2" fill="#000"/>
    <rect x="17" y="12" width="2" height="2" fill="#000"/>
    <rect x="6" y="18" width="6" height="5" fill="#3e2723"/>
    <rect x="16" y="18" width="6" height="5" fill="#3e2723"/>
  </g>

  <!-- Frame 1 (feet shifted) -->
  <g transform="translate(28,0)">
    <rect x="34" y="6" width="16" height="12" fill="#6d4c2b"/>
    <rect x="32" y="9" width="20" height="9" fill="#8b5a2b"/>
    <rect x="36" y="11" width="4" height="4" fill="#fff"/>
    <rect x="44" y="11" width="4" height="4" fill="#fff"/>
    <rect x="37" y="12" width="2" height="2" fill="#000"/>
    <rect x="45" y="12" width="2" height="2" fill="#000"/>
    <rect x="33" y="19" width="6" height="4" fill="#3e2723"/>
    <rect x="45" y="19" width="6" height="4" fill="#3e2723"/>
  </g>
</svg>
